<svg width="771" height="172" viewBox="0 0 771 172" fill="none" xmlns="http://www.w3.org/2000/svg">
<path d="M143.133 84.0308C141 83.0462 140.467 81.0769 141 80.0923L146.333 62.3692L127.667 65.8154C127.133 65.8154 125 65.8154 124.467 62.3692L122.867 56.4615L110.067 70.2461C110.067 70.2461 101.533 78.6154 104.2 65.8154L109.533 38.7385L99.4 43.6615C98.8667 43.6615 96.7333 44.1538 94.0667 39.2308L85 22L75.4 38.2461C72.7333 43.1692 70.6 42.6769 70.0667 42.6769L59.9333 37.7538L65.2667 64.8308C67.9333 77.6308 59.4 69.2615 59.4 69.2615L46.6 55.4769L45 61.3846C43.9333 64.8308 42.3333 64.8308 41.8 64.8308L23.1333 61.3846L28.4667 79.1077C28.4667 80.5846 28.4667 82.0615 26.3333 83.0462L21 86C21 86 42.3333 101.754 49.2667 107.169C50.8667 108.154 54.0667 111.108 53 114.554L50.3333 121.446L79.6667 117.508C81.2667 117.508 84.4667 117.508 83.9333 121.938L82.3333 150H87.6667L86.0667 121.938C86.0667 117.508 89.2667 117.508 90.3333 117.508L119.667 121.446L117 114.554C115.933 111.108 119.133 108.154 120.733 107.169C127.667 101.754 149 86 149 86L143.133 84.0308Z" fill="#C14037"/>
<path d="M62.4897 119.515L62.4409 112.634C61.4324 112.472 60.3913 112.211 59.3177 111.854C58.2441 111.463 57.2356 110.975 56.2921 110.39L56.3897 112.439H52.6321V101.02H55.8041C56.2596 103.753 57.2356 105.819 58.7321 107.218C60.2287 108.584 62.1156 109.267 64.3929 109.267C66.1172 109.267 67.4511 108.812 68.3945 107.901C69.338 106.957 69.8097 105.786 69.8097 104.387C69.8097 103.281 69.4681 102.386 68.7849 101.703C68.1343 101.02 67.2559 100.434 66.1497 99.9464C65.0761 99.4259 63.9212 98.9216 62.6849 98.4336C60.798 97.6528 59.0412 96.7419 57.4145 95.7008C55.8204 94.6272 54.5353 93.3421 53.5593 91.8456C52.5833 90.3165 52.0953 88.4947 52.0953 86.38C52.0953 85.404 52.2417 84.3955 52.5345 83.3544C52.8273 82.3133 53.3316 81.3373 54.0473 80.4264C54.7631 79.5155 55.7553 78.7509 57.0241 78.1328C58.2929 77.5147 59.9033 77.1568 61.8553 77.0592V71.1544H66.4425L66.3937 77.5472C67.1095 77.7424 67.7927 77.9864 68.4433 78.2792C69.1265 78.572 69.7609 78.9461 70.3465 79.4016L70.2001 77.4008H74.0065V88.7712H70.7857C70.4929 86.9493 70.0212 85.4365 69.3705 84.2328C68.7524 82.9965 67.9228 82.0693 66.8817 81.4512C65.8407 80.8331 64.5556 80.5403 63.0265 80.5728C62.1156 80.5728 61.3185 80.7517 60.6353 81.1096C59.9521 81.4675 59.4153 81.9717 59.0249 82.6224C58.6345 83.2405 58.4393 83.9563 58.4393 84.7696C58.4393 85.7781 58.6671 86.6403 59.1225 87.356C59.578 88.0392 60.3425 88.7061 61.4161 89.3568C62.5223 90.0075 64.0025 90.7557 65.8569 91.6016C67.0607 92.1221 68.2807 92.724 69.5169 93.4072C70.7532 94.0579 71.8756 94.8224 72.8841 95.7008C73.9252 96.5792 74.7548 97.604 75.3729 98.7752C75.9911 99.9464 76.3001 101.329 76.3001 102.923C76.3001 104.615 75.9423 106.144 75.2265 107.51C74.5108 108.877 73.4535 109.999 72.0545 110.878C70.6881 111.756 68.9964 112.342 66.9793 112.634L66.9305 119.515H62.4897Z" fill="white"/>
<path d="M182.87 112V107.45C184.177 107.45 185.11 107.193 185.67 106.68C186.23 106.167 186.58 105.443 186.72 104.51C186.907 103.53 187 102.433 187 101.22V89.46C187 88.62 187.023 87.6867 187.07 86.66C187.117 85.5867 187.187 84.5367 187.28 83.51C186.533 83.5567 185.647 83.6033 184.62 83.65C183.64 83.65 182.893 83.6733 182.38 83.72V78.4C184.527 78.4 186.347 78.2833 187.84 78.05C189.333 77.8167 190.5 77.5367 191.34 77.21C192.227 76.8833 192.833 76.58 193.16 76.3H196.59C196.683 76.7667 196.73 77.35 196.73 78.05C196.777 78.75 196.823 79.3333 196.87 79.8C198.457 78.5867 200.16 77.63 201.98 76.93C203.847 76.23 205.597 75.88 207.23 75.88C209.377 75.88 211.15 76.2767 212.55 77.07C213.95 77.8167 215.07 78.96 215.91 80.5C217.59 79.1 219.433 77.98 221.44 77.14C223.493 76.3 225.453 75.88 227.32 75.88C231.1 75.88 233.947 76.9767 235.86 79.17C237.82 81.3167 238.8 85.0733 238.8 90.44V100.73C238.8 101.383 238.777 102.317 238.73 103.53C238.683 104.697 238.613 105.817 238.52 106.89C239.267 106.797 240.083 106.75 240.97 106.75C241.903 106.703 242.603 106.68 243.07 106.68V112H225.36V107.45C226.433 107.45 227.203 107.193 227.67 106.68C228.183 106.167 228.51 105.443 228.65 104.51C228.79 103.53 228.86 102.433 228.86 101.22V90.51C228.813 87.4767 228.3 85.3767 227.32 84.21C226.387 83.0433 225.127 82.4367 223.54 82.39C222.327 82.3433 221.183 82.5533 220.11 83.02C219.083 83.4867 218.15 84.0467 217.31 84.7C217.543 85.6333 217.707 86.66 217.8 87.78C217.893 88.9 217.94 90.09 217.94 91.35C217.94 92.9367 217.94 94.5 217.94 96.04C217.94 97.58 217.94 99.1433 217.94 100.73C217.94 101.383 217.917 102.317 217.87 103.53C217.823 104.697 217.753 105.817 217.66 106.89C218.407 106.797 219.223 106.75 220.11 106.75C220.997 106.703 221.697 106.68 222.21 106.68V112H204.15V107.45C205.363 107.45 206.227 107.193 206.74 106.68C207.3 106.167 207.65 105.443 207.79 104.51C207.93 103.53 208 102.433 208 101.22L207.93 90.3C207.93 87.2667 207.487 85.19 206.6 84.07C205.713 82.95 204.477 82.3667 202.89 82.32C201.723 82.32 200.627 82.5767 199.6 83.09C198.62 83.6033 197.733 84.21 196.94 84.91C196.94 85.5167 196.94 86.1 196.94 86.66C196.94 87.22 196.94 87.8033 196.94 88.41V100.73C196.94 101.383 196.917 102.317 196.87 103.53C196.823 104.697 196.753 105.817 196.66 106.89C197.407 106.797 198.177 106.75 198.97 106.75C199.763 106.703 200.393 106.68 200.86 106.68V112H182.87ZM266.725 112C266.631 111.347 266.561 110.81 266.515 110.39C266.515 109.923 266.491 109.387 266.445 108.78C264.858 110.367 263.178 111.487 261.405 112.14C259.631 112.793 257.835 113.12 256.015 113.12C253.028 113.12 250.695 112.233 249.015 110.46C247.335 108.687 246.495 106.47 246.495 103.81C246.495 101.57 247.055 99.6567 248.175 98.07C249.341 96.4833 250.858 95.2 252.725 94.22C254.638 93.1933 256.738 92.4233 259.025 91.91C261.358 91.35 263.691 91.0233 266.025 90.93V87.29C266.025 86.0767 265.861 84.98 265.535 84C265.255 83.02 264.741 82.25 263.995 81.69C263.295 81.13 262.291 80.8733 260.985 80.92C260.098 80.9667 259.235 81.1533 258.395 81.48C257.555 81.8067 256.831 82.2733 256.225 82.88C256.598 83.3 256.831 83.7667 256.925 84.28C257.018 84.7467 257.065 85.1667 257.065 85.54C257.065 86.4733 256.691 87.4533 255.945 88.48C255.198 89.46 254.008 89.9267 252.375 89.88C250.975 89.8333 249.901 89.3433 249.155 88.41C248.408 87.4767 248.035 86.38 248.035 85.12C248.035 83.2533 248.688 81.6433 249.995 80.29C251.348 78.89 253.145 77.8167 255.385 77.07C257.625 76.2767 260.098 75.88 262.805 75.88C266.911 75.88 270.085 76.9533 272.325 79.1C274.611 81.2 275.755 84.5833 275.755 89.25C275.755 90.8367 275.755 92.19 275.755 93.31C275.755 94.43 275.731 95.55 275.685 96.67C275.685 97.79 275.685 99.1433 275.685 100.73C275.685 101.383 275.661 102.317 275.615 103.53C275.568 104.697 275.498 105.817 275.405 106.89C276.198 106.797 277.038 106.75 277.925 106.75C278.811 106.703 279.488 106.68 279.955 106.68V112H266.725ZM265.955 95.9C264.648 96.04 263.411 96.2733 262.245 96.6C261.078 96.9267 260.051 97.37 259.165 97.93C258.325 98.49 257.648 99.1667 257.135 99.96C256.668 100.753 256.435 101.64 256.435 102.62C256.481 103.927 256.901 104.86 257.695 105.42C258.488 105.98 259.398 106.26 260.425 106.26C261.498 106.26 262.501 106.027 263.435 105.56C264.368 105.093 265.208 104.487 265.955 103.74C265.955 103.273 265.955 102.83 265.955 102.41C265.955 101.943 265.955 101.477 265.955 101.01C265.955 100.17 265.955 99.33 265.955 98.49C265.955 97.6033 265.955 96.74 265.955 95.9ZM283.274 129.85V125.3C284.58 125.3 285.514 125.043 286.074 124.53C286.68 124.017 287.054 123.27 287.194 122.29C287.38 121.357 287.474 120.283 287.474 119.07V89.46C287.474 88.62 287.497 87.6867 287.544 86.66C287.59 85.5867 287.66 84.5367 287.754 83.51C287.007 83.5567 286.12 83.6033 285.094 83.65C284.067 83.65 283.297 83.6733 282.784 83.72V78.4C284.977 78.4 286.797 78.2833 288.244 78.05C289.737 77.8167 290.904 77.5367 291.744 77.21C292.63 76.8833 293.237 76.58 293.564 76.3H296.994C297.087 76.7667 297.157 77.35 297.204 78.05C297.25 78.7033 297.297 79.24 297.344 79.66C298.977 78.26 300.587 77.28 302.174 76.72C303.807 76.16 305.347 75.88 306.794 75.88C309.594 75.88 312.044 76.6033 314.144 78.05C316.29 79.4967 317.947 81.55 319.114 84.21C320.327 86.87 320.934 89.9967 320.934 93.59C320.934 97.3233 320.21 100.683 318.764 103.67C317.317 106.61 315.287 108.92 312.674 110.6C310.107 112.28 307.074 113.12 303.574 113.12C302.314 113.12 301.17 112.98 300.144 112.7C299.164 112.467 298.23 112.187 297.344 111.86V118.58C297.344 119.233 297.32 120.143 297.274 121.31C297.274 122.523 297.227 123.667 297.134 124.74C297.88 124.647 298.697 124.577 299.584 124.53C300.47 124.53 301.147 124.53 301.614 124.53V129.85H283.274ZM302.454 107.87C304.6 107.823 306.257 107.193 307.424 105.98C308.637 104.72 309.477 103.087 309.944 101.08C310.41 99.0733 310.644 96.9267 310.644 94.64C310.644 92.4933 310.387 90.4633 309.874 88.55C309.36 86.6367 308.544 85.0967 307.424 83.93C306.304 82.7167 304.834 82.1333 303.014 82.18C301.847 82.2267 300.774 82.53 299.794 83.09C298.814 83.6033 297.997 84.3267 297.344 85.26C297.344 86.7067 297.344 88.1533 297.344 89.6C297.344 91 297.344 92.4 297.344 93.8C297.344 95.2 297.344 96.6233 297.344 98.07C297.344 99.47 297.344 100.893 297.344 102.34C297.344 103.74 297.344 105.163 297.344 106.61C297.857 106.937 298.58 107.24 299.514 107.52C300.447 107.8 301.427 107.917 302.454 107.87ZM324.621 107.45C325.928 107.45 326.861 107.193 327.421 106.68C328.028 106.167 328.401 105.443 328.541 104.51C328.681 103.53 328.751 102.433 328.751 101.22V72.45C328.751 71.61 328.774 70.6533 328.821 69.58C328.868 68.46 328.938 67.3867 329.031 66.36C328.284 66.4067 327.398 66.4533 326.371 66.5C325.391 66.5 324.644 66.5233 324.131 66.57V61.25C326.324 61.25 328.144 61.1333 329.591 60.9C331.084 60.6667 332.251 60.3867 333.091 60.06C333.978 59.7333 334.584 59.43 334.911 59.15H338.691V100.73C338.691 101.383 338.668 102.317 338.621 103.53C338.574 104.697 338.504 105.817 338.411 106.89C339.204 106.797 340.044 106.75 340.931 106.75C341.818 106.703 342.494 106.68 342.961 106.68V112H324.621V107.45ZM364.138 113.12C360.731 113.12 357.721 112.373 355.108 110.88C352.494 109.34 350.464 107.193 349.018 104.44C347.571 101.64 346.848 98.35 346.848 94.57C346.848 91.3033 347.571 88.2467 349.018 85.4C350.464 82.5533 352.494 80.2667 355.108 78.54C357.768 76.7667 360.848 75.88 364.348 75.88C366.308 75.88 368.221 76.16 370.088 76.72C371.954 77.2333 373.634 78.1433 375.128 79.45C376.668 80.7567 377.881 82.53 378.768 84.77C379.701 87.01 380.144 89.81 380.098 93.17L357.138 93.59C357.138 96.11 357.441 98.3733 358.048 100.38C358.701 102.387 359.751 103.973 361.198 105.14C362.644 106.307 364.581 106.89 367.008 106.89C367.941 106.89 368.991 106.727 370.158 106.4C371.371 106.073 372.584 105.537 373.798 104.79C375.058 103.997 376.224 102.947 377.298 101.64L380.448 104.58C378.768 106.96 376.971 108.78 375.058 110.04C373.144 111.253 371.231 112.07 369.318 112.49C367.451 112.91 365.724 113.12 364.138 113.12ZM357.558 88.69H370.438C370.391 86.73 370.111 85.19 369.598 84.07C369.131 82.9033 368.478 82.0633 367.638 81.55C366.798 81.0367 365.818 80.78 364.698 80.78C362.644 80.78 361.034 81.5267 359.868 83.02C358.701 84.4667 357.931 86.3567 357.558 88.69ZM419.702 113.12C417.696 113.12 415.736 112.863 413.822 112.35C411.909 111.837 410.416 111.183 409.342 110.39L409.482 112.49H404.162L403.882 100.45H408.432C408.572 101.85 409.132 103.133 410.112 104.3C411.092 105.467 412.376 106.4 413.962 107.1C415.549 107.753 417.322 108.08 419.282 108.08C420.076 108.08 420.822 107.963 421.522 107.73C422.269 107.497 422.876 107.123 423.342 106.61C423.856 106.05 424.112 105.373 424.112 104.58C424.112 103.693 423.786 102.97 423.132 102.41C422.526 101.85 421.616 101.313 420.402 100.8C419.236 100.287 417.766 99.7033 415.992 99.05C414.546 98.49 413.076 97.9067 411.582 97.3C410.136 96.6933 408.782 95.97 407.522 95.13C406.309 94.2433 405.329 93.17 404.582 91.91C403.836 90.6033 403.462 89.0167 403.462 87.15C403.462 85.7967 403.719 84.4667 404.232 83.16C404.746 81.8067 405.539 80.5933 406.612 79.52C407.686 78.4 409.039 77.5133 410.672 76.86C412.352 76.2067 414.336 75.88 416.622 75.88C417.882 75.88 419.306 76.09 420.892 76.51C422.526 76.8833 423.902 77.4667 425.022 78.26V76.23H430.342V88.62H425.792C425.512 86.9867 424.929 85.5867 424.042 84.42C423.202 83.2533 422.106 82.3667 420.752 81.76C419.399 81.1067 417.882 80.78 416.202 80.78C415.036 80.78 413.962 81.06 412.982 81.62C412.049 82.18 411.582 83.1367 411.582 84.49C411.582 85.5633 411.956 86.4267 412.702 87.08C413.449 87.6867 414.476 88.2 415.782 88.62C417.089 89.04 418.536 89.53 420.122 90.09C422.502 90.8833 424.602 91.8167 426.422 92.89C428.289 93.9633 429.759 95.27 430.832 96.81C431.906 98.3033 432.442 100.147 432.442 102.34C432.442 104.767 431.836 106.773 430.622 108.36C429.409 109.947 427.822 111.137 425.862 111.93C423.949 112.723 421.896 113.12 419.702 113.12ZM445.067 130.97C443.294 130.97 441.777 130.433 440.517 129.36C439.304 128.333 438.697 126.957 438.697 125.23C438.697 123.97 439.094 122.85 439.887 121.87C440.727 120.937 441.8 120.447 443.107 120.4C444.134 120.353 444.997 120.68 445.697 121.38C446.444 122.127 446.817 123.13 446.817 124.39C446.817 124.53 446.817 124.67 446.817 124.81C446.817 124.95 446.794 125.113 446.747 125.3C446.84 125.3 446.957 125.277 447.097 125.23C447.517 125.09 447.96 124.693 448.427 124.04C448.94 123.433 449.43 122.617 449.897 121.59C450.41 120.517 450.9 119.303 451.367 117.95C451.88 116.643 452.324 115.267 452.697 113.82L441.637 91.63C440.33 89.0167 439.467 87.0567 439.047 85.75C438.674 84.3967 438.417 83.2067 438.277 82.18L435.057 82.32V77H452.487V81.48C450.76 81.6667 449.804 82.32 449.617 83.44C449.477 84.56 449.687 85.7267 450.247 86.94L457.107 102.62C457.574 101.407 458.18 99.54 458.927 97.02C459.674 94.4533 460.56 91.6767 461.587 88.69C461.774 88.0833 462.007 87.3833 462.287 86.59C462.614 85.75 462.964 84.9333 463.337 84.14C463.71 83.3 464.107 82.6233 464.527 82.11L460.537 82.32V77H472.997V81.48C471.55 81.8067 470.337 82.6933 469.357 84.14C468.424 85.5867 467.584 87.36 466.837 89.46L458.087 114.45C456.78 118.23 455.544 121.333 454.377 123.76C453.21 126.233 451.904 128.053 450.457 129.22C449.01 130.387 447.214 130.97 445.067 130.97ZM476.132 107.45C477.438 107.45 478.372 107.193 478.932 106.68C479.492 106.167 479.842 105.443 479.982 104.51C480.168 103.53 480.262 102.433 480.262 101.22V89.46C480.262 88.62 480.285 87.6867 480.332 86.66C480.378 85.5867 480.448 84.5367 480.542 83.51C479.795 83.5567 478.908 83.6033 477.882 83.65C476.902 83.65 476.155 83.6733 475.642 83.72V78.4H478.442C480.262 78.4 481.918 78.1667 483.412 77.7C484.952 77.2333 485.955 76.7667 486.422 76.3H489.852C489.945 76.7667 490.015 77.6533 490.062 78.96C490.108 80.22 490.132 81.34 490.132 82.32C491.392 80.78 492.582 79.5433 493.702 78.61C494.822 77.6767 495.918 77 496.992 76.58C498.112 76.1133 499.232 75.88 500.352 75.88C501.985 75.88 503.408 76.3467 504.622 77.28C505.835 78.1667 506.442 79.6367 506.442 81.69C506.442 82.39 506.278 83.1367 505.952 83.93C505.625 84.6767 505.112 85.3067 504.412 85.82C503.712 86.3333 502.755 86.59 501.542 86.59C500.608 86.59 499.652 86.31 498.672 85.75C497.692 85.19 497.132 84.1167 496.992 82.53C496.058 82.53 495.125 82.9267 494.192 83.72C493.258 84.4667 492.418 85.3767 491.672 86.45C490.972 87.4767 490.482 88.4333 490.202 89.32V100.73C490.202 101.383 490.178 102.317 490.132 103.53C490.085 104.697 490.015 105.817 489.922 106.89C490.668 106.797 491.485 106.75 492.372 106.75C493.305 106.703 494.005 106.68 494.472 106.68V112H476.132V107.45ZM524.255 113.12C521.455 113.12 519.191 112.583 517.465 111.51C515.785 110.437 514.548 108.757 513.755 106.47C513.008 104.183 512.635 101.243 512.635 97.65V89.6C512.635 88.76 512.658 87.8033 512.705 86.73C512.751 85.61 512.798 84.5367 512.845 83.51C512.098 83.5567 511.211 83.6033 510.185 83.65C509.205 83.65 508.458 83.6733 507.945 83.72V78.4H508.645C511.538 78.4 513.825 78.1667 515.505 77.7C517.185 77.2333 518.258 76.7667 518.725 76.3H522.575V97.72C522.575 100.753 522.971 103.017 523.765 104.51C524.558 105.957 525.818 106.68 527.545 106.68C528.758 106.68 529.971 106.353 531.185 105.7C532.445 105 533.471 104.207 534.265 103.32V89.6C534.265 88.76 534.288 87.8033 534.335 86.73C534.381 85.61 534.451 84.5367 534.545 83.51C533.798 83.5567 532.911 83.6033 531.885 83.65C530.905 83.65 530.158 83.6733 529.645 83.72V78.4H531.325C533.518 78.4 535.455 78.1667 537.135 77.7C538.815 77.1867 539.888 76.72 540.355 76.3H544.205V100.73C544.205 101.383 544.181 102.317 544.135 103.53C544.088 104.697 544.018 105.817 543.925 106.89C544.671 106.797 545.488 106.75 546.375 106.75C547.308 106.703 548.008 106.68 548.475 106.68V112H535.175C535.128 111.393 535.058 110.787 534.965 110.18C534.918 109.573 534.848 108.967 534.755 108.36C533.308 109.573 531.745 110.67 530.065 111.65C528.431 112.63 526.495 113.12 524.255 113.12ZM552.336 129.85V125.3C553.643 125.3 554.576 125.043 555.136 124.53C555.743 124.017 556.116 123.27 556.256 122.29C556.443 121.357 556.536 120.283 556.536 119.07V89.46C556.536 88.62 556.559 87.6867 556.606 86.66C556.653 85.5867 556.723 84.5367 556.816 83.51C556.069 83.5567 555.183 83.6033 554.156 83.65C553.129 83.65 552.359 83.6733 551.846 83.72V78.4C554.039 78.4 555.859 78.2833 557.306 78.05C558.799 77.8167 559.966 77.5367 560.806 77.21C561.693 76.8833 562.299 76.58 562.626 76.3H566.056C566.149 76.7667 566.219 77.35 566.266 78.05C566.313 78.7033 566.359 79.24 566.406 79.66C568.039 78.26 569.649 77.28 571.236 76.72C572.869 76.16 574.409 75.88 575.856 75.88C578.656 75.88 581.106 76.6033 583.206 78.05C585.353 79.4967 587.009 81.55 588.176 84.21C589.389 86.87 589.996 89.9967 589.996 93.59C589.996 97.3233 589.273 100.683 587.826 103.67C586.379 106.61 584.349 108.92 581.736 110.6C579.169 112.28 576.136 113.12 572.636 113.12C571.376 113.12 570.233 112.98 569.206 112.7C568.226 112.467 567.293 112.187 566.406 111.86V118.58C566.406 119.233 566.383 120.143 566.336 121.31C566.336 122.523 566.289 123.667 566.196 124.74C566.943 124.647 567.759 124.577 568.646 124.53C569.533 124.53 570.209 124.53 570.676 124.53V129.85H552.336ZM571.516 107.87C573.663 107.823 575.319 107.193 576.486 105.98C577.699 104.72 578.539 103.087 579.006 101.08C579.473 99.0733 579.706 96.9267 579.706 94.64C579.706 92.4933 579.449 90.4633 578.936 88.55C578.423 86.6367 577.606 85.0967 576.486 83.93C575.366 82.7167 573.896 82.1333 572.076 82.18C570.909 82.2267 569.836 82.53 568.856 83.09C567.876 83.6033 567.059 84.3267 566.406 85.26C566.406 86.7067 566.406 88.1533 566.406 89.6C566.406 91 566.406 92.4 566.406 93.8C566.406 95.2 566.406 96.6233 566.406 98.07C566.406 99.47 566.406 100.893 566.406 102.34C566.406 103.74 566.406 105.163 566.406 106.61C566.919 106.937 567.643 107.24 568.576 107.52C569.509 107.8 570.489 107.917 571.516 107.87Z" fill="#C14037"/>
</svg>
