<svg width="85" height="69" viewBox="0 0 85 69" fill="none" xmlns="http://www.w3.org/2000/svg">
<ellipse cx="41.1535" cy="36.9643" rx="37.7036" ry="32.0357" fill="#D9D9D9"/>
<ellipse cx="14.0464" cy="12.3214" rx="14.0464" ry="12.3214" fill="#D9D9D9"/>
<ellipse cx="70.7251" cy="12.3214" rx="14.0464" ry="12.3214" fill="#D9D9D9"/>
<path d="M56.6786 44.6036C56.6786 50.4558 49.6175 55.2 40.9072 55.2C32.1969 55.2 25.1357 50.4558 25.1357 44.6036C25.1357 38.7513 32.1969 34.0071 40.9072 34.0071C49.6175 34.0071 56.6786 38.7513 56.6786 44.6036Z" fill="#C4C4C4"/>
<ellipse cx="26.0158" cy="33.5143" rx="7.28725" ry="6.9" fill="white"/>
<ellipse cx="55.7984" cy="33.5143" rx="7.28725" ry="6.9" fill="white"/>
<path d="M27.1118 33.8279C27.1118 36.0798 25.2351 37.9052 22.9202 37.9052C20.6052 37.9052 18.7285 36.0798 18.7285 33.8279C18.7285 31.5761 20.6052 29.7507 22.9202 29.7507C25.2351 29.7507 27.1118 31.5761 27.1118 33.8279Z" fill="#4F4343"/>
<path d="M56.7489 33.8279C56.7489 36.0798 54.8723 37.9052 52.5573 37.9052C50.2423 37.9052 48.3656 36.0798 48.3656 33.8279C48.3656 31.5761 50.2423 29.7507 52.5573 29.7507C54.8723 29.7507 56.7489 31.5761 56.7489 33.8279Z" fill="#4F4343"/>
<ellipse cx="35.9786" cy="44.6036" rx="2.95714" ry="4.68214" fill="#6B6C6E"/>
<ellipse cx="46.3285" cy="44.6036" rx="2.95714" ry="4.68214" fill="#6B6C6E"/>
<line x1="19.7144" y1="21.6714" x2="31.0501" y2="21.6714" stroke="#4F4343" stroke-width="2"/>
<line x1="51.2571" y1="21.6714" x2="62.5928" y2="21.6714" stroke="#4F4343" stroke-width="2"/>
</svg>
