<svg width="191" height="243" viewBox="0 0 191 243" fill="none" xmlns="http://www.w3.org/2000/svg">
<path d="M183.367 157.733C180.077 163.43 164.354 160.51 148.247 151.211C132.141 141.912 121.75 129.755 125.039 124.058C128.328 118.361 144.052 121.281 160.159 130.58C176.265 139.88 186.656 152.036 183.367 157.733Z" fill="#D9D9D9"/>
<path d="M182.612 151.613C187.065 156.559 179.551 169.394 166.258 181.363C152.965 193.332 136.794 193.147 132.341 188.201C127.888 183.255 136.839 175.422 150.132 163.453C163.425 151.483 178.159 146.667 182.612 151.613Z" fill="#D9D9D9"/>
<path d="M153 176.018C153 211.374 148.341 243 87.7767 243C20.2239 243 21.0004 211.374 21.0004 176.018C21.0004 140.662 44.0358 112 87.7767 112C131.517 112 153 140.662 153 176.018Z" fill="#D9D9D9"/>
<path d="M40.767 127.525C47.6329 130.024 45.7461 152.526 36.5528 177.784C27.3595 203.043 20.0395 208.144 13.1736 205.645C6.30774 203.146 2.49596 193.993 11.6893 168.735C20.8826 143.476 33.9011 125.026 40.767 127.525Z" fill="#D9D9D9"/>
<ellipse cx="31.5" cy="25" rx="28.5" ry="25" fill="#D9D9D9"/>
<ellipse cx="146.5" cy="25" rx="28.5" ry="25" fill="#D9D9D9"/>
<ellipse cx="86.5" cy="75" rx="76.5" ry="65" fill="#D9D9D9"/>
<path d="M118 90.5C118 102.374 103.673 112 86 112C68.3269 112 54 102.374 54 90.5C54 78.6259 68.3269 69 86 69C103.673 69 118 78.6259 118 90.5Z" fill="#C4C4C4"/>
<ellipse cx="55.7857" cy="68" rx="14.7857" ry="14" fill="white"/>
<ellipse cx="116.214" cy="68" rx="14.7857" ry="14" fill="white"/>
<path d="M58.0096 68.6365C58.0096 73.2054 54.2019 76.9092 49.5048 76.9092C44.8077 76.9092 41 73.2054 41 68.6365C41 64.0676 44.8077 60.3638 49.5048 60.3638C54.2019 60.3638 58.0096 64.0676 58.0096 68.6365Z" fill="#4F4343"/>
<path d="M118.143 68.6365C118.143 73.2054 114.335 76.9092 109.638 76.9092C104.941 76.9092 101.133 73.2054 101.133 68.6365C101.133 64.0676 104.941 60.3638 109.638 60.3638C114.335 60.3638 118.143 64.0676 118.143 68.6365Z" fill="#4F4343"/>
<ellipse cx="76" cy="90.5" rx="6" ry="9.5" fill="#6B6C6E"/>
<ellipse cx="97" cy="90.5" rx="6" ry="9.5" fill="#6B6C6E"/>
<path d="M96.6455 50.636C136.507 40.2075 129.728 42.9885 129.319 50.6361" stroke="#6B6C6E" stroke-width="2"/>
<path d="M45 51.9998C79.7184 29.0572 73.8134 35.1754 73.4577 52" stroke="#6B6C6E" stroke-width="2"/>
</svg>
