<svg width="175" height="242" viewBox="0 0 175 242" fill="none" xmlns="http://www.w3.org/2000/svg">
<path d="M153 175.018C153 210.374 148.341 242 87.7767 242C20.2239 242 21.0004 210.374 21.0004 175.018C21.0004 139.662 44.0358 111 87.7767 111C131.517 111 153 139.662 153 175.018Z" fill="#D9D9D9"/>
<path d="M131.432 121.525C138.298 119.026 151.316 137.476 160.509 162.734C169.703 187.993 167.375 196.606 160.509 199.105C153.643 201.604 144.839 197.042 135.646 171.784C126.453 146.526 124.566 124.024 131.432 121.525Z" fill="#D9D9D9"/>
<path d="M40.767 126.525C47.6329 129.024 45.7461 151.526 36.5528 176.784C27.3595 202.042 20.0395 207.144 13.1736 204.645C6.30774 202.146 2.49596 192.993 11.6893 167.734C20.8826 142.476 33.9011 124.026 40.767 126.525Z" fill="#D9D9D9"/>
<ellipse cx="31.5" cy="25" rx="28.5" ry="25" fill="#D9D9D9"/>
<ellipse cx="146.5" cy="25" rx="28.5" ry="25" fill="#D9D9D9"/>
<ellipse cx="86.5" cy="75" rx="76.5" ry="65" fill="#D9D9D9"/>
<path d="M118 90.5C118 102.374 103.673 112 86 112C68.3269 112 54 102.374 54 90.5C54 78.6259 68.3269 69 86 69C103.673 69 118 78.6259 118 90.5Z" fill="#C4C4C4"/>
<ellipse cx="55.7857" cy="68" rx="14.7857" ry="14" fill="white"/>
<ellipse cx="116.214" cy="68" rx="14.7857" ry="14" fill="white"/>
<path d="M58.0096 68.6364C58.0096 73.2053 54.2019 76.9091 49.5048 76.9091C44.8077 76.9091 41 73.2053 41 68.6364C41 64.0675 44.8077 60.3636 49.5048 60.3636C54.2019 60.3636 58.0096 64.0675 58.0096 68.6364Z" fill="#4F4343"/>
<path d="M118.143 68.6364C118.143 73.2053 114.335 76.9091 109.638 76.9091C104.941 76.9091 101.133 73.2053 101.133 68.6364C101.133 64.0675 104.941 60.3637 109.638 60.3637C114.335 60.3637 118.143 64.0675 118.143 68.6364Z" fill="#4F4343"/>
<ellipse cx="76" cy="90.5" rx="6" ry="9.5" fill="#6B6C6E"/>
<ellipse cx="97" cy="90.5" rx="6" ry="9.5" fill="#6B6C6E"/>
<line x1="41" y1="44" x2="64" y2="44" stroke="#6B6C6E" stroke-width="2"/>
<line x1="109" y1="44" x2="132" y2="44" stroke="#6B6C6E" stroke-width="2"/>
<path d="M48.0288 76.44V75.208C45.8688 74.936 44.5247 73.48 44.3488 71.448L45.7568 71.352C45.9488 72.76 46.7008 73.64 48.0288 73.864V69.848C45.4848 69.208 44.5888 68.44 44.5888 66.776C44.5888 64.984 45.8848 63.72 48.0288 63.624V62.2H49.2128V63.688C51.1008 64.024 52.2048 65.4 52.4288 67.16L51.0048 67.256C50.8608 66.2 50.2688 65.368 49.2128 65.064V68.808C51.7728 69.496 52.6528 70.536 52.6528 72.088C52.6528 73.896 51.2448 75.08 49.2128 75.24V76.44H48.0288ZM45.9968 66.728C45.9968 67.624 46.4128 68.024 48.0288 68.488V64.936C46.7808 65.016 45.9968 65.72 45.9968 66.728ZM51.2448 72.184C51.2448 71.32 50.8928 70.728 49.2128 70.184V73.912C50.5088 73.816 51.2448 73.208 51.2448 72.184Z" fill="white"/>
<path d="M108.029 76.44V75.208C105.869 74.936 104.525 73.48 104.349 71.448L105.757 71.352C105.949 72.76 106.701 73.64 108.029 73.864V69.848C105.485 69.208 104.589 68.44 104.589 66.776C104.589 64.984 105.885 63.72 108.029 63.624V62.2H109.213V63.688C111.101 64.024 112.205 65.4 112.429 67.16L111.005 67.256C110.861 66.2 110.269 65.368 109.213 65.064V68.808C111.773 69.496 112.653 70.536 112.653 72.088C112.653 73.896 111.245 75.08 109.213 75.24V76.44H108.029ZM105.997 66.728C105.997 67.624 106.413 68.024 108.029 68.488V64.936C106.781 65.016 105.997 65.72 105.997 66.728ZM111.245 72.184C111.245 71.32 110.893 70.728 109.213 70.184V73.912C110.509 73.816 111.245 73.208 111.245 72.184Z" fill="white"/>
</svg>
