<svg width="175" height="243" viewBox="0 0 175 243" fill="none" xmlns="http://www.w3.org/2000/svg">
<path d="M153 176.018C153 211.374 148.341 243 87.7767 243C20.2239 243 21.0004 211.374 21.0004 176.018C21.0004 140.662 44.0358 112 87.7767 112C131.517 112 153 140.662 153 176.018Z" fill="#D9D9D9"/>
<path d="M131.432 122.525C138.298 120.026 151.316 138.476 160.509 163.734C169.703 188.993 167.375 197.606 160.509 200.105C153.643 202.604 144.839 198.042 135.646 172.784C126.453 147.525 124.566 125.024 131.432 122.525Z" fill="#D9D9D9"/>
<path d="M40.767 127.525C47.6329 130.024 45.7461 152.526 36.5528 177.784C27.3595 203.043 20.0395 208.144 13.1736 205.645C6.30774 203.146 2.49596 193.993 11.6893 168.735C20.8826 143.476 33.9011 125.026 40.767 127.525Z" fill="#D9D9D9"/>
<ellipse cx="31.5" cy="25" rx="28.5" ry="25" fill="#D9D9D9"/>
<ellipse cx="146.5" cy="25" rx="28.5" ry="25" fill="#D9D9D9"/>
<ellipse cx="86.5" cy="75" rx="76.5" ry="65" fill="#D9D9D9"/>
<path d="M118 90.5C118 102.374 103.673 112 86 112C68.3269 112 54 102.374 54 90.5C54 78.6259 68.3269 69 86 69C103.673 69 118 78.6259 118 90.5Z" fill="#C4C4C4"/>
<ellipse cx="55.7857" cy="68" rx="14.7857" ry="14" fill="white"/>
<ellipse cx="116.214" cy="68" rx="14.7857" ry="14" fill="white"/>
<path d="M58.0096 68.6364C58.0096 73.2053 54.2019 76.9091 49.5048 76.9091C44.8077 76.9091 41 73.2053 41 68.6364C41 64.0675 44.8077 60.3636 49.5048 60.3636C54.2019 60.3636 58.0096 64.0675 58.0096 68.6364Z" fill="#4F4343"/>
<path d="M118.143 68.6364C118.143 73.2053 114.335 76.9091 109.638 76.9091C104.941 76.9091 101.133 73.2053 101.133 68.6364C101.133 64.0675 104.941 60.3637 109.638 60.3637C114.335 60.3637 118.143 64.0675 118.143 68.6364Z" fill="#4F4343"/>
<ellipse cx="76" cy="90.5" rx="6" ry="9.5" fill="#6B6C6E"/>
<ellipse cx="97" cy="90.5" rx="6" ry="9.5" fill="#6B6C6E"/>
<path d="M106 43.6136C118.4 28.0136 129.167 37.1136 133 43.6136" stroke="#4F4343"/>
<path d="M41 43.6136C53.4 28.0136 64.1667 37.1136 68 43.6136" stroke="#4F4343"/>
</svg>
